<?xml version="1.0" standalone="no"?>
<!DOCTYPE svg PUBLIC "-//W3C//DTD SVG 1.1//EN" "http://www.w3.org/Graphics/SVG/1.1/DTD/svg11.dtd" >
<svg xmlns="http://www.w3.org/2000/svg">
<metadata>
This is a custom SVG webfont generated by Fontspring.
Designer    : FontSite.com
Foundry URL : http://www.fontsite.com
</metadata>
<defs>
<font id="webfont" horiz-adv-x="567" >
<font-face units-per-em="1000" ascent="753" descent="-247" />
<missing-glyph horiz-adv-x="250" />
<glyph unicode=" "  horiz-adv-x="250" />
<glyph unicode="&#x09;" horiz-adv-x="250" />
<glyph unicode="&#xa0;" horiz-adv-x="250" />
<glyph unicode="!" horiz-adv-x="279" d="M103 135v532h73v-532h-73zM90 40q0 20 15 34.5t35 14.5t34.5 -14.5t14.5 -34.5q0 -21 -14.5 -35.5t-35.5 -14.5q-20 0 -34.5 15t-14.5 35z" />
<glyph unicode="&#x22;" horiz-adv-x="329" d="M209 399l-13 268h80l-13 -268h-54zM66 399l-13 268h81l-14 -268h-54z" />
<glyph unicode="#" horiz-adv-x="600" d="M130 6l25 206h-106v60h114l17 139h-106v60h114l24 201l63 -8l-24 -193h141l25 201l62 -8l-24 -193h104v-60h-110l-18 -139h103v-60h-110l-27 -215l-62 9l25 206h-141l-27 -215zM227 272h140l17 139h-140z" />
<glyph unicode="$" d="M77 162l72 20q8 -52 40 -84t79 -36v269q-85 35 -121 74.5t-36 98.5q0 66 42.5 112t114.5 57v90h59v-91q43 -5 80.5 -32.5t59.5 -68.5l-58 -38q-34 58 -82 69v-219q57 -25 89 -47q75 -49 75 -141q0 -74 -44.5 -128.5t-119.5 -70.5v-97h-59v93q-71 2 -124.5 49.5 t-66.5 120.5zM268 409v194q-38 -10 -60 -36.5t-22 -63.5q0 -57 82 -94zM327 67q42 17 65.5 49t23.5 75q0 38 -20.5 64t-68.5 49v-237z" />
<glyph unicode="%" horiz-adv-x="715" d="M144 10l388 670l38 -22l-388 -671zM180 383q-61 0 -104 43t-43 105q0 58 44 100.5t104 42.5q62 0 105.5 -42.5t43.5 -103.5t-43.5 -103t-106.5 -42zM182 439q37 0 63 26.5t26 63.5t-26.5 63.5t-63.5 26.5q-36 0 -62.5 -26t-26.5 -63q0 -38 26 -64.5t64 -26.5zM385 141 q0 58 44 100.5t104 42.5q62 0 105.5 -42.5t43.5 -103.5t-43.5 -103t-106.5 -42q-61 0 -104 43t-43 105zM444 140q0 -38 26.5 -64.5t63.5 -26.5t63 26.5t26 63.5t-26.5 63.5t-63.5 26.5q-36 0 -62.5 -26t-26.5 -63z" />
<glyph unicode="&#x26;" horiz-adv-x="636" d="M53 173q0 92 90 164q22 18 82 57q-39 52 -53 82t-14 61q0 61 41.5 101t104.5 40q60 0 101 -38.5t41 -95.5q0 -58 -51 -109q-21 -21 -67 -55l140 -179q32 32 76 88l53 -45q-33 -47 -85 -99l114 -145h-93l-73 93q-116 -106 -214 -106q-80 0 -136.5 54t-56.5 132zM285 434 q60 44 75 63t15 48q0 30 -20.5 49.5t-52.5 19.5q-30 0 -51.5 -21t-21.5 -52q0 -21 8 -36.5t43 -63.5q2 0 5 -7zM126 176q0 -49 35.5 -85t83.5 -36q69 0 171 93l-148 192l-77 -55q-65 -52 -65 -109z" />
<glyph unicode="'" horiz-adv-x="187" d="M66 399l-13 268h81l-14 -268h-54z" />
<glyph unicode="(" horiz-adv-x="294" d="M166 -180q-38 82 -60.5 205.5t-22.5 251.5t22.5 251t60.5 205l64 -29q-75 -191 -75 -427q0 -237 75 -428z" />
<glyph unicode=")" horiz-adv-x="294" d="M63 -151q75 191 75 428q0 236 -75 427l63 29q39 -81 61.5 -204t22.5 -252t-22.5 -252t-61.5 -205z" />
<glyph unicode="*" d="M215 414l-54 40l77 97l-120 34l21 63l116 -43l-5 124h67l-5 -124l116 43l21 -63l-120 -34l77 -97l-54 -40l-69 104z" />
<glyph unicode="+" d="M253 108v202h-205v61h205v201h61v-201h205v-61h-205v-202h-61z" />
<glyph unicode="," horiz-adv-x="227" d="M24 -133l83 231l65 -24l-100 -226z" />
<glyph unicode="-" horiz-adv-x="181" d="M0 181v64h181v-64h-181z" />
<glyph unicode="." horiz-adv-x="227" d="M64 40q0 20 14.5 34.5t34.5 14.5q21 0 35.5 -14.5t14.5 -34.5q0 -21 -14.5 -35.5t-34.5 -14.5q-21 0 -35.5 14.5t-14.5 35.5z" />
<glyph unicode="/" horiz-adv-x="485" d="M-14 -153l436 886l58 -26l-436 -887z" />
<glyph unicode="0" d="M108 96q-63 99 -63 240q0 143 69.5 242t169.5 99q101 0 169.5 -98.5t68.5 -243.5q0 -144 -66 -244q-32 -47 -78.5 -74.5t-93.5 -27.5q-49 0 -96.5 29t-79.5 78zM284 58q69 0 117 80t48 195q0 118 -47.5 197t-118.5 79q-70 0 -117.5 -79t-47.5 -195q0 -120 47 -198.5 t119 -78.5z" />
<glyph unicode="1" d="M264 0v598h-110l39 69h146v-667h-75z" />
<glyph unicode="2" d="M50 0l242 281q67 77 91.5 119.5t24.5 80.5q0 53 -39 90.5t-95 37.5q-34 0 -64 -16t-47 -42q-18 -30 -22 -79h-75q8 75 34 115q27 42 73.5 66t99.5 24q88 0 148 -57.5t60 -140.5q0 -55 -28 -104t-116 -150l-136 -156h279v-69h-430z" />
<glyph unicode="3" d="M89 83q-20 35 -24 90h72q7 -44 23 -65q16 -22 45.5 -36t59.5 -14q55 0 93 39t38 95q0 37 -18 67t-48 44q-27 13 -76 14v65q52 1 79 17q53 30 53 97q0 49 -32.5 81t-81.5 32q-63 0 -92 -43q-14 -20 -21 -64h-73q9 63 31 98q47 77 154 77q82 0 135 -51t53 -128 q0 -100 -85 -148q45 -21 70 -63.5t25 -97.5q0 -86 -59 -143t-148 -57q-56 0 -102.5 25.5t-70.5 68.5z" />
<glyph unicode="4" d="M19 109l416 594v-527h82v-67h-82v-109h-74v109h-342zM150 176h211v301z" />
<glyph unicode="5" d="M33 108l59 42q58 -92 151 -92q70 0 118 49t48 120q0 70 -47.5 118t-117.5 48q-58 0 -129 -45l97 319h265v-69h-213l-44 -143q23 4 38 4q97 0 160.5 -65.5t63.5 -165.5q0 -103 -69.5 -171t-175.5 -68q-130 0 -204 119z" />
<glyph unicode="6" d="M53 214q0 77 55 154l227 316l56 -42l-154 -214q33 10 62 10q89 0 151 -64.5t62 -155.5q0 -94 -67 -161.5t-162 -67.5q-94 0 -162 66.5t-68 158.5zM126 215q0 -65 46 -111t111 -46q64 0 110 46t46 109q0 67 -45.5 113t-110.5 46t-111 -46t-46 -111z" />
<glyph unicode="7" d="M59 23l378 575h-364v69h491l-447 -683z" />
<glyph unicode="8" d="M85 184q0 112 99 163q-82 49 -82 147q0 78 53.5 130.5t133.5 52.5t133.5 -52.5t53.5 -130.5q0 -45 -23 -85t-61 -62q46 -23 71.5 -65t25.5 -96q0 -85 -57 -141t-143 -56q-87 0 -145.5 56t-58.5 139zM289 377q48 0 82 34t34 82t-34 82t-82 34q-47 0 -81.5 -34t-34.5 -80 q0 -49 34 -83.5t82 -34.5zM158 188q0 -54 37.5 -92t91.5 -38q53 0 91 37.5t38 90.5t-38 90.5t-91 37.5q-52 0 -90.5 -37.5t-38.5 -88.5z" />
<glyph unicode="9" d="M176 25l153 214q-32 -9 -61 -9q-89 0 -151.5 64t-62.5 156q0 94 67 160.5t162 66.5t163 -66t68 -158q0 -78 -55 -154l-228 -315zM284 296q65 0 111 46t46 111t-46 110.5t-111 45.5t-111 -45.5t-46 -109.5q0 -66 46 -112t111 -46z" />
<glyph unicode=":" horiz-adv-x="227" d="M114 326q-21 0 -35.5 14.5t-14.5 35.5q0 20 14.5 34.5t34.5 14.5q21 0 35.5 -14.5t14.5 -34.5q0 -21 -14.5 -35.5t-34.5 -14.5zM64 40q0 20 14.5 34.5t34.5 14.5q21 0 35.5 -14.5t14.5 -34.5q0 -21 -14.5 -35.5t-34.5 -14.5q-21 0 -35.5 14.5t-14.5 35.5z" />
<glyph unicode=";" horiz-adv-x="227" d="M129 326q-20 0 -34.5 15t-14.5 35t15 34.5t35 14.5t34.5 -14.5t14.5 -34.5q0 -21 -14.5 -35.5t-35.5 -14.5zM24 -133l83 231l65 -24l-100 -226z" />
<glyph unicode="&#x3c;" horiz-adv-x="500" d="M33 304v65l433 204v-75l-353 -161l353 -162v-74z" />
<glyph unicode="=" d="M48 373v58h471v-58h-471zM48 249v58h471v-58h-471z" />
<glyph unicode="&#x3e;" horiz-adv-x="500" d="M34 101v74l353 162l-353 161v75l433 -204v-65z" />
<glyph unicode="?" horiz-adv-x="436" d="M217 133q-61 0 -102 41.5t-41 102.5q0 50 28.5 82.5t92.5 52.5q65 21 82 35q30 22 30 68q0 39 -25.5 65t-65.5 26q-38 0 -63 -25t-25 -62q0 -17 6 -42h-73q-4 32 -4 46q0 64 46.5 108t114.5 44q70 0 116 -45.5t46 -114.5q0 -85 -63 -129q-29 -20 -103 -41 q-68 -20 -68 -73q0 -30 21 -51t50 -21q43 0 62 37q9 19 10 49h72q-1 -50 -19 -83q-19 -32 -52 -51t-73 -19zM169 40q0 20 15 34.5t35 14.5t34.5 -14.5t14.5 -34.5q0 -21 -14.5 -35.5t-35.5 -14.5q-20 0 -34.5 15t-14.5 35z" />
<glyph unicode="@" horiz-adv-x="720" d="M193 35q-78 45 -123 125t-45 174q0 146 100.5 245.5t247.5 99.5q135 0 226 -86t91 -213q0 -97 -48 -168.5t-113 -71.5q-52 0 -72 59q-31 -33 -58.5 -46.5t-64.5 -13.5q-72 0 -120 51.5t-48 129.5q0 84 53.5 140t133.5 56q72 0 118 -56l5 48h66l-27 -227q-4 -34 -4 -46 q0 -32 27 -32q35 0 63.5 53t28.5 119q0 107 -72.5 175.5t-185.5 68.5q-119 0 -200.5 -82.5t-81.5 -202.5q0 -78 37 -144.5t101 -103.5t158 -37q102 0 219 55l21 -58q-116 -58 -239 -58q-114 0 -194 47zM338 204q47 0 83 42.5t36 99.5q0 46 -27.5 75.5t-70.5 29.5 q-49 0 -83 -38.5t-34 -94.5q0 -50 27 -82t69 -32z" />
<glyph unicode="A" horiz-adv-x="620" d="M7 0l307 699l300 -699h-82l-79 189h-285l-80 -189h-81zM199 258h225l-111 267z" />
<glyph unicode="B" horiz-adv-x="530" d="M87 0v667h121q100 0 151 -42q62 -49 62 -139q0 -82 -66 -129q59 -17 92.5 -62t33.5 -107q0 -88 -67 -143q-56 -45 -161 -45h-166zM162 373h56q65 0 94 26q36 31 36 86q0 56 -35 88q-29 25 -93 25h-58v-225zM162 69h85q80 0 117 29q43 35 43 92q0 31 -15.5 58t-40.5 41 q-39 21 -114 21h-75v-241z" />
<glyph unicode="C" horiz-adv-x="646" d="M50 331q0 143 102.5 245t246.5 102q103 0 197 -66v-92q-94 88 -202 88q-110 0 -189.5 -82t-79.5 -196q0 -112 79.5 -192t190.5 -80q108 0 201 87v-92q-95 -65 -201 -65q-141 0 -243 101.5t-102 241.5z" />
<glyph unicode="D" horiz-adv-x="633" d="M87 0v667h137q154 0 245 -77q115 -96 115 -256t-117 -257q-49 -41 -106 -59t-138 -18h-136zM162 69h65q118 0 191 61q91 77 91 203q0 128 -90 204q-73 61 -192 61h-65v-529z" />
<glyph unicode="E" horiz-adv-x="482" d="M87 0v667h345v-69h-270v-199h263v-69h-263v-261h270v-69h-345z" />
<glyph unicode="F" horiz-adv-x="433" d="M87 0v667h303v-69h-228v-199h221v-69h-221v-330h-75z" />
<glyph unicode="G" horiz-adv-x="758" d="M50 332q0 143 102 244.5t246 101.5q116 0 204 -68q35 -25 77 -77l-55 -50q-50 65 -103.5 95t-121.5 30q-114 0 -194 -81t-80 -196q0 -111 79.5 -192t188.5 -81q62 0 119.5 31.5t88.5 82.5q23 36 27 94h-198v69h278v-17q0 -106 -35 -169q-40 -73 -116.5 -117t-164.5 -44 q-141 0 -241.5 101t-100.5 243z" />
<glyph unicode="H" horiz-adv-x="663" d="M87 0v667h75v-272h340v272h75v-667h-75v326h-340v-326h-75z" />
<glyph unicode="I" horiz-adv-x="248" d="M87 0v667h75v-667h-75z" />
<glyph unicode="J" horiz-adv-x="307" d="M-6 38q42 -37 77 -37q39 0 56.5 30.5t17.5 96.5v539h75v-539q0 -62 -10.5 -96.5t-36.5 -59.5q-41 -41 -100 -41t-120 49z" />
<glyph unicode="K" horiz-adv-x="569" d="M87 0v667h75v-286l284 286h100l-313 -311l323 -356h-102l-273 306l-19 -19v-287h-75z" />
<glyph unicode="L" horiz-adv-x="358" d="M87 0v667h75v-598h183v-69h-258z" />
<glyph unicode="M" horiz-adv-x="863" d="M63 0l110 704l256 -563l262 564l103 -705h-76l-62 464l-227 -492l-224 492l-66 -464h-76z" />
<glyph unicode="N" horiz-adv-x="767" d="M87 0v695l519 -545v517h75v-697l-519 544v-514h-75z" />
<glyph unicode="O" horiz-adv-x="794" d="M136 105q-86 97 -86 232q0 138 103.5 239.5t244.5 101.5q142 0 244 -101.5t102 -243.5q0 -143 -102.5 -244t-247.5 -101q-71 0 -139.5 31t-118.5 86zM210 134q81 -76 185 -76q114 0 194 80t80 195q0 114 -79.5 194.5t-192.5 80.5q-112 0 -192 -80t-80 -191 q0 -123 85 -203z" />
<glyph unicode="P" horiz-adv-x="457" d="M87 0v667h121q114 0 168 -47q62 -52 62 -141q0 -83 -55 -136q-54 -51 -156 -51h-65v-292h-75zM162 360h60q68 0 105.5 31.5t37.5 88.5q0 56 -37 88q-36 30 -111 30h-55v-238z" />
<glyph unicode="Q" horiz-adv-x="794" d="M50 331q0 143 102 245t245 102q144 0 245.5 -102t101.5 -247q0 -68 -22 -122t-74 -112l100 -102h-95l-56 60q-91 -65 -202 -65q-143 0 -244 100.5t-101 242.5zM125 331q0 -113 78.5 -193t190.5 -80q85 0 151 48l-161 162h97l115 -120q73 81 73 183q0 116 -79 196.5 t-193 80.5q-115 0 -193.5 -80.5t-78.5 -196.5z" />
<glyph unicode="R" horiz-adv-x="502" d="M87 0v667h108q107 0 160 -36q35 -23 54.5 -63.5t19.5 -87.5q0 -76 -46 -125.5t-122 -56.5l212 -298h-91l-201 292h-19v-292h-75zM162 358h47q70 0 108.5 31.5t38.5 90.5q0 66 -49 96q-35 22 -101 22h-44v-240z" />
<glyph unicode="S" horiz-adv-x="517" d="M50 160l72 20q28 -122 136 -122q56 0 95 38t39 93q0 61 -55 95q-25 16 -118 58q-72 32 -103.5 70.5t-31.5 93.5q0 74 53.5 123t133.5 49q112 0 172 -104l-59 -38q-25 40 -50.5 56t-64.5 16q-47 0 -78.5 -29.5t-31.5 -73.5t42 -72q24 -16 115 -56q80 -35 115.5 -78 t35.5 -106q0 -86 -61.5 -145.5t-150.5 -59.5q-79 0 -132.5 45t-72.5 127z" />
<glyph unicode="T" horiz-adv-x="425" d="M174 0v598h-161v69h398v-69h-162v-598h-75z" />
<glyph unicode="U" horiz-adv-x="649" d="M131 80q-44 56 -44 158v429h75v-409q0 -90 22 -128q20 -32 59 -52t81 -20q43 0 82 20t59 52q22 38 22 128v409h75v-429q0 -102 -44 -158q-33 -43 -84.5 -67.5t-108.5 -24.5t-109.5 24.5t-84.5 67.5z" />
<glyph unicode="V" horiz-adv-x="554" d="M277 -39l-270 706h82l189 -508l189 508h81z" />
<glyph unicode="W" horiz-adv-x="955" d="M263 -34l-256 701h81l178 -500l209 534l197 -534l196 500h81l-279 -701l-197 533z" />
<glyph unicode="X" horiz-adv-x="502" d="M13 0l197 345l-180 322h85l138 -251l141 251h85l-184 -322l193 -345h-83l-153 274l-155 -274h-84z" />
<glyph unicode="Y" horiz-adv-x="528" d="M225 0v287l-218 380h86l170 -298l172 298h87l-222 -380v-287h-75z" />
<glyph unicode="Z" horiz-adv-x="534" d="M23 0l364 598h-317v69h440l-363 -598h354v-69h-478z" />
<glyph unicode="[" horiz-adv-x="291" d="M153 -109h95v-67h-168v905h168v-67h-95v-771z" />
<glyph unicode="\" horiz-adv-x="485" d="M441 -180l-436 887l58 26l436 -886z" />
<glyph unicode="]" horiz-adv-x="291" d="M43 -109h95v771h-95v67h168v-905h-168v67z" />
<glyph unicode="^" horiz-adv-x="500" d="M24 364l176 305h99l176 -305h-81l-145 245l-144 -245h-81z" />
<glyph unicode="_" horiz-adv-x="500" d="M0 -64h500v-69h-500v69z" />
<glyph unicode="`" horiz-adv-x="500" d="M249 487l-135 136l74 33l105 -144z" />
<glyph unicode="a" horiz-adv-x="524" d="M42 209q0 94 56 155t142 61t145 -69v59h71v-415h-71v58q-58 -70 -143 -70q-86 0 -143 62.5t-57 158.5zM115 210q0 -68 38.5 -112.5t97.5 -44.5q61 0 100 43.5t39 111.5q0 67 -38.5 109.5t-99.5 42.5q-58 0 -97.5 -43t-39.5 -107z" />
<glyph unicode="b" horiz-adv-x="524" d="M68 0v729h71v-373q59 68 145 68t142 -61t56 -155q0 -95 -57 -157.5t-143 -62.5t-143 69v-57h-71zM134 207q0 -68 38.5 -111t99.5 -43q59 0 98 43.5t39 108.5q0 67 -38.5 110.5t-97.5 43.5q-62 0 -100.5 -42.5t-38.5 -109.5z" />
<glyph unicode="c" horiz-adv-x="435" d="M41 205q0 92 63.5 155.5t157.5 63.5q69 0 129 -39v-94q-34 37 -63.5 52.5t-67.5 15.5q-62 0 -104 -44.5t-42 -108.5q0 -65 41.5 -109t103.5 -44q39 0 69.5 16t65.5 56v-94q-69 -43 -133 -43q-93 0 -156.5 62.5t-63.5 154.5z" />
<glyph unicode="d" horiz-adv-x="524" d="M42 208q0 94 56 155t142 61t145 -68v373h71v-729h-71v57q-57 -69 -144 -69q-86 0 -142.5 62.5t-56.5 157.5zM115 210q0 -68 38.5 -112.5t97.5 -44.5q61 0 100 43.5t39 111.5q0 67 -38.5 109t-99.5 42q-58 0 -97.5 -43t-39.5 -106z" />
<glyph unicode="e" horiz-adv-x="481" d="M41 205q0 97 56 158t145 61t143.5 -60t54.5 -159v-12h-324q3 -64 39.5 -102t92.5 -38q41 0 69.5 19.5t58.5 67.5l60 -34q-67 -118 -191 -118q-90 0 -147 60.5t-57 156.5zM121 253h244q-10 49 -43 78t-79 29q-45 0 -79.5 -30t-42.5 -77z" />
<glyph unicode="f" horiz-adv-x="239" d="M68 0v349h-39v66h39v177q0 74 24 105q35 44 100 44q22 0 52 -9v-72q-28 10 -48 10q-34 0 -45.5 -19.5t-11.5 -75.5v-160h105v-66h-105v-349h-71z" />
<glyph unicode="g" horiz-adv-x="525" d="M49 -41h70q4 -45 20 -70q36 -55 113 -55q133 0 133 163v61q-60 -69 -147 -69q-84 0 -140.5 62.5t-56.5 154.5q0 94 57.5 156.5t143.5 62.5q84 0 143 -69v59h71v-406q0 -61 -8.5 -96.5t-31.5 -66.5q-57 -77 -165 -77q-90 0 -144.5 51t-57.5 139zM114 207q0 -67 38 -110 t97 -43q61 0 100 42.5t39 109.5q0 68 -38.5 111t-99.5 43q-59 0 -97.5 -43t-38.5 -110z" />
<glyph unicode="h" horiz-adv-x="469" d="M68 0v729h71v-363q48 58 119 58q38 0 70 -15.5t49 -41.5q24 -37 24 -110v-257h-71v252q0 57 -20 82t-66 25q-64 0 -88 -49q-17 -34 -17 -103v-207h-71z" />
<glyph unicode="i" horiz-adv-x="208" d="M104 521q-21 0 -36 15t-15 37q0 20 15 35t36 15t36 -15t15 -36t-15 -36t-36 -15zM68 0v415h71v-415h-71z" />
<glyph unicode="j" horiz-adv-x="208" d="M104 521q-21 0 -36 15t-15 37q0 20 15 35t36 15t36 -15t15 -36t-15 -36t-36 -15zM68 -234v649h71v-649h-71z" />
<glyph unicode="k" horiz-adv-x="421" d="M68 0v729h71v-467l150 153h95l-177 -177l211 -238h-94l-167 189l-18 -18v-171h-71z" />
<glyph unicode="l" horiz-adv-x="207" d="M68 0v729h71v-729h-71z" />
<glyph unicode="m" horiz-adv-x="680" d="M68 0v415h71v-45q41 55 103 55q77 0 114 -67q38 67 121 67q77 0 112 -56q23 -37 23 -106v-263h-71v252q0 57 -17.5 82.5t-57.5 25.5q-89 0 -89 -130v-230h-71v246q0 114 -77 114q-23 0 -44 -12.5t-31 -32.5q-15 -30 -15 -89v-226h-71z" />
<glyph unicode="n" horiz-adv-x="469" d="M68 0v415h71v-50q27 33 54 46.5t66 13.5q38 0 70 -15.5t49 -41.5q23 -37 23 -111v-257h-71v245q0 59 -14 81q-21 34 -74 34q-54 0 -78.5 -36.5t-24.5 -116.5v-207h-71z" />
<glyph unicode="o" horiz-adv-x="521" d="M41 210q0 88 64.5 151t155.5 63q92 0 155.5 -63t63.5 -155t-63.5 -155t-157.5 -63q-92 0 -155 64t-63 158zM114 208q0 -68 40.5 -111.5t104.5 -43.5q65 0 106.5 43t41.5 110t-41.5 110t-105.5 43q-62 0 -104 -43.5t-42 -107.5z" />
<glyph unicode="p" horiz-adv-x="524" d="M139 58v-292h-71v649h71l-1 -59q60 69 144 69q86 0 143 -62.5t57 -157.5q0 -94 -56 -155.5t-142 -61.5t-145 70zM134 205q0 -66 39 -109t100 -43q58 0 97 43t39 107q0 68 -38.5 112.5t-97.5 44.5q-61 0 -100 -43.5t-39 -111.5z" />
<glyph unicode="q" horiz-adv-x="524" d="M42 205q0 95 56.5 157.5t143.5 62.5q86 0 143 -69v59h71v-649h-71v292q-60 -70 -145 -70q-86 0 -142 61.5t-56 155.5zM115 208q0 -67 38.5 -111t97.5 -44q62 0 100.5 42.5t38.5 109.5q0 68 -38.5 111.5t-99.5 43.5q-59 0 -98 -43.5t-39 -108.5z" />
<glyph unicode="r" horiz-adv-x="295" d="M68 0v415h71v-45q28 33 46.5 44t47.5 11q31 0 63 -18l-33 -64q-23 14 -42 14q-46 0 -66 -38q-16 -29 -16 -100v-219h-71z" />
<glyph unicode="s" horiz-adv-x="350" d="M35 94l63 26q17 -37 35.5 -52t47.5 -15t48.5 19t19.5 47q0 23 -14 37t-53 31q-72 31 -96 55.5t-24 65.5q0 50 34.5 83t86.5 33q76 0 114 -75l-59 -31q-22 41 -58 41q-20 0 -35 -13.5t-15 -32.5q0 -18 14 -30.5t53 -28.5q58 -25 79 -40q46 -34 46 -91t-41 -96t-101 -39 q-104 0 -145 106z" />
<glyph unicode="t" horiz-adv-x="214" d="M68 0v349h-43v66h43v150h71v-150h74v-66h-74v-349h-71z" />
<glyph unicode="u" horiz-adv-x="465" d="M106 40q-38 41 -38 125v250h71v-242q0 -52 13 -77q23 -43 80 -43q59 0 81 43q13 25 13 77v242h71v-250q0 -84 -38 -125q-47 -52 -127 -52q-79 0 -126 52z" />
<glyph unicode="v" horiz-adv-x="423" d="M212 -28l-204 443h80l124 -279l123 279h80z" />
<glyph unicode="w" horiz-adv-x="682" d="M212 -29l-204 444h80l123 -281l130 313l129 -313l124 281h80l-206 -444l-128 309z" />
<glyph unicode="x" horiz-adv-x="454" d="M8 0l177 221l-151 194h87l108 -141l109 141h88l-152 -194l172 -221h-86l-131 169l-132 -169h-89z" />
<glyph unicode="y" horiz-adv-x="460" d="M199 39l-191 376h82l147 -297l134 297h81l-307 -649h-80z" />
<glyph unicode="z" horiz-adv-x="460" d="M8 0l301 349h-245v66h387l-299 -349h286v-66h-430z" />
<glyph unicode="{" horiz-adv-x="291" d="M108 -28v184q0 43 -13 64t-44 29v59q31 8 44 29t13 60v195q0 73 29.5 105.5t96.5 32.5q13 0 26 -1v-62h-9q-43 0 -56.5 -17t-13.5 -70v-187q0 -49 -13 -73.5t-48 -43.5q34 -19 47.5 -45t13.5 -73v-181q0 -58 14 -74t65 -16v-62q-9 -1 -19 -1h-8q-67 0 -96 34t-29 114z " />
<glyph unicode="|" horiz-adv-x="500" d="M213 -167v834h75v-834h-75z" />
<glyph unicode="}" horiz-adv-x="291" d="M110 -26v187q0 49 13 73.5t48 42.5q-34 19 -47.5 45t-13.5 73v181q0 59 -14 75t-65 15v63q67 0 95 -12q57 -26 57 -135v-184q0 -43 13 -64t44 -30v-59q-31 -7 -44 -28t-13 -60v-196q0 -73 -29.5 -105t-96.5 -32h-26v63h9q43 0 56.5 17t13.5 70z" />
<glyph unicode="~" horiz-adv-x="667" d="M136 582l-43 29q31 64 62 89.5t75 25.5q39 0 112 -34q70 -32 97 -32q28 0 48 15t42 53l45 -26q-29 -59 -63.5 -86t-80.5 -27q-21 0 -47 9t-93 39q-39 18 -65 18q-50 0 -89 -73z" />
<glyph unicode="&#xa1;" horiz-adv-x="277" d="M139 422q-20 0 -34.5 14.5t-14.5 34.5t14.5 34.5t34.5 14.5t34.5 -14.5t14.5 -35.5q0 -20 -14.5 -34t-34.5 -14zM103 -156v531h72v-531h-72z" />
<glyph unicode="&#xa2;" d="M284 24v100q-80 11 -133 72t-53 143q0 83 53 144.5t133 72.5v94h58v-93q57 -4 106 -38v-94q-50 59 -106 67v-304q57 9 109 71v-94q-60 -40 -109 -42v-99h-58zM284 189v301q-49 -10 -81 -52t-32 -98t31.5 -98.5t81.5 -52.5z" />
<glyph unicode="&#xa3;" d="M53 26q52 83 129 85q28 45 28 84q0 18 -6 41h-112v57h88l-29 57q-27 53 -35.5 80t-8.5 60q0 78 57.5 132t140.5 54q85 0 137 -53.5t56 -144.5l-73 -20q-4 48 -11 72q-11 34 -40.5 54t-68.5 20q-53 0 -88 -34t-35 -85q0 -26 11 -55t43 -89l25 -48h126v-57h-106 q6 -22 6 -39q0 -43 -29 -96l57.5 -19t37.5 -13t19.5 -6t18.5 -2q23 0 41 15t39 52l60 -36q-52 -103 -137 -103q-37 0 -110 26q-68 25 -94 25q-45 0 -80 -53z" />
<glyph unicode="&#xa4;" horiz-adv-x="667" d="M96 82l-41 41l95 94q-52 73 -52 143q0 69 50 141l-95 95l41 42l96 -95q46 31 75 41.5t69 10.5t69.5 -10.5t73.5 -40.5l95 94l41 -42l-94 -94q29 -43 39.5 -73.5t10.5 -68.5q0 -39 -10.5 -68t-39.5 -73l95 -96l-40 -41l-96 95q-72 -51 -143 -51q-38 0 -69 11t-75 39z M334 192q69 0 118.5 49.5t49.5 118.5t-49 119t-117 50q-71 0 -120.5 -49t-49.5 -120q0 -69 49.5 -118.5t118.5 -49.5z" />
<glyph unicode="&#xa5;" d="M244 0v239h-194v57h188l-49 87h-139v57h106l-130 227h86l170 -298l172 298h87l-133 -227h109v-57h-142l-50 -87h192v-57h-198v-239h-75z" />
<glyph unicode="&#xa6;" horiz-adv-x="500" d="M213 333v334h75v-334h-75zM213 153h75v-320h-75v320z" />
<glyph unicode="&#xa7;" d="M103 2h72q4 -56 19 -77q26 -40 82 -40q46 0 73 26.5t27 73.5q0 55 -43 83q-20 13 -89 40q-68 26 -93 50q-50 45 -50 120q0 113 100 157q-45 26 -64.5 58t-19.5 78q0 70 50.5 118t124.5 48q46 0 84.5 -20.5t58.5 -54.5q24 -40 28 -114h-71q-1 52 -16 77q-26 44 -83 44 q-47 0 -75.5 -28.5t-28.5 -75.5q0 -44 34 -70q15 -11 27.5 -16.5t60.5 -22.5q74 -27 102 -51q53 -45 53 -126q0 -52 -23.5 -88.5t-76.5 -68.5q33 -20 46 -34q37 -37 37 -105q0 -75 -48 -121t-127 -46q-49 0 -88 20.5t-59 56.5q-21 35 -24 109zM283 171q45 0 76.5 32t31.5 77 t-31.5 77t-76.5 32q-44 0 -76 -32t-32 -76q0 -46 31.5 -78t76.5 -32z" />
<glyph unicode="&#xa8;" horiz-adv-x="500" d="M336 510q-20 0 -35 15t-15 36q0 20 15 34.5t35 14.5q21 0 35.5 -14.5t14.5 -35.5q0 -20 -15 -35t-35 -15zM163 510q-21 0 -35.5 15t-14.5 36q0 20 15 34.5t35 14.5t35 -14.5t15 -35.5q0 -20 -15 -35t-35 -15z" />
<glyph unicode="&#xa9;" horiz-adv-x="740" d="M25 336q0 142 102 242t248 100q139 0 239 -102t100 -242q0 -143 -100.5 -244t-243.5 -101q-144 0 -244.5 101t-100.5 246zM81 336q0 -122 84 -206.5t205 -84.5q119 0 203.5 85t84.5 204q0 117 -84.5 202.5t-199.5 85.5q-132 0 -219 -96q-74 -82 -74 -190zM176 329 q0 84 61 145t146 61q40 0 71.5 -13t68.5 -44v-85q-32 38 -43 48q-40 38 -97 38q-60 0 -104.5 -45.5t-44.5 -106.5q0 -59 44.5 -103.5t104.5 -44.5q55 0 97 37q7 5 43 46v-84q-70 -54 -139 -54q-85 0 -146.5 61t-61.5 144z" />
<glyph unicode="&#xaa;" horiz-adv-x="358" d="M167 407q-55 0 -90.5 37.5t-35.5 94.5q0 56 35.5 93.5t89.5 37.5q52 0 88 -38v32h47v-250h-47v31q-35 -38 -87 -38zM172 449q38 0 61.5 25t23.5 65t-23.5 64.5t-61.5 24.5q-35 0 -59 -25t-24 -62q0 -40 23.5 -66t59.5 -26z" />
<glyph unicode="&#xab;" horiz-adv-x="431" d="M186 213l149 187l46 -36l-119 -151l119 -147l-46 -37zM186 29l-149 184l149 187l47 -36l-119 -151l119 -147z" />
<glyph unicode="&#xac;" horiz-adv-x="500" d="M33 197v70h433v-267h-75v197h-358z" />
<glyph unicode="&#xad;" horiz-adv-x="181" d="M0 181v64h181v-64h-181z" />
<glyph unicode="&#xae;" horiz-adv-x="740" d="M25 336q0 142 102 242t248 100q139 0 239 -102t100 -242q0 -143 -100.5 -244t-243.5 -101q-144 0 -244.5 101t-100.5 246zM81 336q0 -122 84 -206.5t205 -84.5q119 0 203.5 85t84.5 204q0 117 -84.5 202.5t-199.5 85.5q-132 0 -219 -96q-74 -82 -74 -190zM282 130v400h68 q64 0 98 -29t34 -85q0 -45 -24 -73t-68 -36l122 -177h-70l-103 151v-151h-57zM339 359h18q67 0 67 58t-72 58h-13v-116z" />
<glyph unicode="&#xaf;" horiz-adv-x="500" d="M116 527v60h269v-60h-269z" />
<glyph unicode="&#xb0;" d="M284 410q-56 0 -95 39t-39 95q0 55 39.5 94t95.5 39q54 0 93 -39.5t39 -93.5q0 -55 -39 -94.5t-94 -39.5zM284 463q33 0 56.5 23.5t23.5 57.5q0 32 -23.5 56t-55.5 24q-34 0 -58 -23.5t-24 -56.5q0 -34 23.5 -57.5t57.5 -23.5z" />
<glyph unicode="&#xb1;" d="M253 115v195h-205v61h205v201h61v-201h205v-61h-205v-195h-61zM48 0v61h471v-61h-471z" />
<glyph unicode="&#xb2;" horiz-adv-x="387" d="M41 267l156 171q41 45 56 69.5t15 45.5q0 31 -23 52t-57 21q-45 0 -66 -33q-10 -15 -14 -48h-53q5 48 22 73q38 55 111 55q56 0 94 -35t38 -86q0 -33 -17.5 -62t-73.5 -90l-79 -86h169v-47h-278z" />
<glyph unicode="&#xb3;" horiz-adv-x="387" d="M181 260q-77 0 -111 57q-12 19 -16 58h51q5 -28 15 -40q21 -28 62 -28q33 0 55.5 22t22.5 54q0 47 -39 63q-14 7 -49 8v45q33 0 51 9q31 16 31 55q0 27 -19 45t-49 18t-45 -14t-22 -49h-52q7 42 20 63q30 47 99 47q52 0 86 -31t34 -78q0 -51 -48 -87q54 -35 54 -96 q0 -52 -37.5 -86.5t-93.5 -34.5z" />
<glyph unicode="&#xb4;" horiz-adv-x="500" d="M251 487l-44 25l105 144l74 -33z" />
<glyph unicode="&#xb5;" horiz-adv-x="465" d="M136 19l3 -253h-71v649h71v-253q0 -109 94 -109q57 0 80 43q13 25 13 77v242h71v-250q0 -84 -38 -125q-46 -52 -124 -52q-57 0 -99 31z" />
<glyph unicode="&#xb6;" d="M212 -99v427h-15q-69 0 -112.5 46.5t-43.5 120.5q0 47 19.5 86t53.5 60q44 26 120 26h287l-33 -58h-44v-708h-63v708h-106v-708h-63z" />
<glyph unicode="&#xb7;" horiz-adv-x="225" d="M113 164q-21 0 -35.5 14.5t-14.5 35.5q0 20 14.5 34.5t34.5 14.5q21 0 35.5 -14.5t14.5 -34.5q0 -21 -14.5 -35.5t-34.5 -14.5z" />
<glyph unicode="&#xb8;" horiz-adv-x="500" d="M182 -177l84 130l66 -27l-101 -128z" />
<glyph unicode="&#xb9;" horiz-adv-x="387" d="M179 267v353h-71l28 47h96v-400h-53z" />
<glyph unicode="&#xba;" horiz-adv-x="358" d="M178 406q-57 0 -96.5 39t-39.5 95q0 54 40.5 92t97.5 38q58 0 97.5 -38t39.5 -94t-40 -94t-99 -38zM178 448q40 0 65.5 25.5t25.5 64.5q0 40 -25.5 65.5t-64.5 25.5q-38 0 -63.5 -25.5t-25.5 -63.5q0 -40 25 -66t63 -26z" />
<glyph unicode="&#xbb;" horiz-adv-x="431" d="M199 66l119 147l-119 151l46 36l149 -187l-149 -184zM50 66l119 147l-119 151l47 36l149 -187l-149 -184z" />
<glyph unicode="&#xbc;" horiz-adv-x="860" d="M216 10l388 670l39 -21l-388 -672zM165 267v353h-71l28 47h96v-400h-53zM510 65l268 364v-317h50v-47h-50v-65h-53v65h-215zM604 112h121v164z" />
<glyph unicode="&#xbd;" horiz-adv-x="860" d="M216 10l388 670l39 -21l-388 -672zM165 267v353h-71l28 47h96v-400h-53zM527 0l156 171q40 45 55.5 70t15.5 47q0 30 -23 51t-57 21q-45 0 -66 -33q-10 -15 -14 -48h-53q5 47 22 73q38 54 111 54q55 0 93.5 -34.5t38.5 -84.5q0 -33 -17.5 -62t-73.5 -91l-79 -87h169v-47 h-278z" />
<glyph unicode="&#xbe;" horiz-adv-x="860" d="M217 10l388 670l38 -21l-388 -672zM168 260q-77 0 -111 57q-12 19 -16 58h51q5 -28 15 -40q21 -28 62 -28q33 0 55.5 22t22.5 54q0 47 -39 63q-14 7 -49 8v45q33 0 51 9q31 16 31 55q0 27 -19 45t-49 18t-45 -14t-22 -49h-52q7 42 20 63q30 47 99 47q52 0 86 -31t34 -78 q0 -51 -48 -87q54 -35 54 -96q0 -52 -37.5 -86.5t-93.5 -34.5zM510 65l268 364v-317h50v-47h-50v-65h-53v65h-215zM604 112h121v164z" />
<glyph unicode="&#xbf;" horiz-adv-x="436" d="M218 420q-20 0 -34.5 14.5t-14.5 34.5q0 21 14.5 35.5t35.5 14.5q20 0 34.5 -15t14.5 -35t-15 -34.5t-35 -14.5zM57 -5q0 40 17 75t45 54q29 19 104 40q67 19 67 73q0 30 -21 51t-50 21q-43 0 -62 -37q-7 -16 -10 -49h-72q1 51 20 83q18 32 51.5 51t73.5 19 q61 0 102 -41.5t41 -102.5q0 -50 -28.5 -82.5t-92.5 -52.5q-67 -21 -82 -34q-30 -24 -30 -68q0 -40 25.5 -66t64.5 -26q38 0 63 24.5t25 62.5q0 17 -6 43h73q5 -30 5 -47q0 -64 -46.5 -108t-114.5 -44q-70 0 -116 45.5t-46 115.5z" />
<glyph unicode="&#xc0;" horiz-adv-x="620" d="M315 720l-143 117l67 45l119 -130zM7 0l307 699l300 -699h-82l-79 189h-285l-80 -189h-81zM199 258h225l-111 267z" />
<glyph unicode="&#xc1;" horiz-adv-x="620" d="M318 720l-43 32l119 130l67 -45zM7 0l307 699l300 -699h-82l-79 189h-285l-80 -189h-81zM199 258h225l-111 267z" />
<glyph unicode="&#xc2;" horiz-adv-x="620" d="M222 721l-52 41l139 119l141 -119l-53 -41l-88 76zM7 0l307 699l300 -699h-82l-79 189h-285l-80 -189h-81zM199 258h225l-111 267z" />
<glyph unicode="&#xc3;" horiz-adv-x="620" d="M219 746l-43 34q36 71 89 71q23 0 64 -21q39 -20 55 -20q24 0 45 43l43 -33q-34 -72 -91 -72q-26 0 -65 21q-40 20 -56 20q-12 0 -20 -8.5t-21 -34.5zM7 0l307 699l300 -699h-82l-79 189h-285l-80 -189h-81zM199 258h225l-111 267z" />
<glyph unicode="&#xc4;" horiz-adv-x="620" d="M410 747q-21 0 -36 15t-15 37q0 20 15 35t36 15t36 -15t15 -36t-15 -36t-36 -15zM220 747q-21 0 -36 15t-15 37q0 20 15 35t36 15t36 -15t15 -36t-15 -36t-36 -15zM7 0l307 699l300 -699h-82l-79 189h-285l-80 -189h-81zM199 258h225l-111 267z" />
<glyph unicode="&#xc5;" horiz-adv-x="620" d="M317 715q-38 0 -64.5 27t-26.5 65q0 36 26.5 62.5t63.5 26.5t64 -26.5t27 -63.5t-26.5 -64t-63.5 -27zM317 764q17 0 29 12.5t12 29.5q0 16 -12 28.5t-29 12.5t-29.5 -12t-12.5 -29t12.5 -29.5t29.5 -12.5zM7 0l307 699l300 -699h-82l-79 189h-285l-80 -189h-81zM199 258 h225l-111 267z" />
<glyph unicode="&#xc6;" horiz-adv-x="898" d="M13 0l297 667h293l29 -69h-269l83 -200h263l30 -69h-263l108 -260h271l30 -69h-349l-78 187h-284l-79 -187h-82zM206 256h223l-111 263z" />
<glyph unicode="&#xc7;" horiz-adv-x="646" d="M50 331q0 143 102.5 245t246.5 102q102 0 197 -66v-92q-94 88 -202 88q-110 0 -189.5 -82t-79.5 -196q0 -112 79.5 -192t190.5 -80q107 0 201 87v-92q-95 -65 -201 -65q-141 0 -243 101t-102 242zM269 -183l89 136l72 -32l-110 -130z" />
<glyph unicode="&#xc8;" horiz-adv-x="482" d="M263 720l-143 117l67 45l119 -130zM87 0v667h345v-69h-270v-199h263v-69h-263v-261h270v-69h-345z" />
<glyph unicode="&#xc9;" horiz-adv-x="482" d="M259 720l-43 32l119 130l67 -45zM87 0v667h345v-69h-270v-199h263v-69h-263v-261h270v-69h-345z" />
<glyph unicode="&#xca;" horiz-adv-x="482" d="M175 721l-52 41l139 119l141 -119l-53 -41l-88 76zM87 0v667h345v-69h-270v-199h263v-69h-263v-261h270v-69h-345z" />
<glyph unicode="&#xcb;" horiz-adv-x="482" d="M361 747q-21 0 -36 15t-15 37q0 20 15 35t36 15t36 -15t15 -36t-15 -36t-36 -15zM171 747q-21 0 -36 15t-15 37q0 20 15 35t36 15t36 -15t15 -36t-15 -36t-36 -15zM87 0v667h345v-69h-270v-199h263v-69h-263v-261h270v-69h-345z" />
<glyph unicode="&#xcc;" horiz-adv-x="248" d="M122 720l-120 117l67 45l96 -133zM86 0v667h75v-667h-75z" />
<glyph unicode="&#xcd;" horiz-adv-x="248" d="M136 720l-43 29l96 133l67 -45zM87 0v667h75v-667h-75z" />
<glyph unicode="&#xce;" horiz-adv-x="248" d="M49 721l-48 41l123 119l123 -119l-49 -41l-74 76zM87 0v667h75v-667h-75z" />
<glyph unicode="&#xcf;" horiz-adv-x="248" d="M195 747q-21 0 -36 15t-15 37q0 20 15 35t36 15t36 -15t15 -36t-15 -36t-36 -15zM60 747q-21 0 -36 15t-15 37q0 20 15 35t36 15t36 -15t15 -36t-15 -36t-36 -15zM87 0v667h75v-667h-75z" />
<glyph unicode="&#xd0;" horiz-adv-x="633" d="M88 0v326h-67v67h67v274h136q153 0 244 -77q115 -95 115 -257q0 -160 -117 -256q-50 -41 -106 -59t-137 -18h-135zM163 69h64q117 0 190 61q91 77 91 203q0 128 -90 204q-73 61 -191 61h-64v-205h159v-67h-159v-257z" />
<glyph unicode="&#xd1;" horiz-adv-x="767" d="M299 746l-43 34q36 71 89 71q23 0 64 -21q39 -20 55 -20q24 0 45 43l43 -33q-34 -72 -91 -72q-26 0 -65 21q-40 20 -56 20q-12 0 -20 -8.5t-21 -34.5zM87 0v695l519 -545v517h75v-697l-519 544v-514h-75z" />
<glyph unicode="&#xd2;" horiz-adv-x="794" d="M395 720l-143 117l67 45l119 -130zM136 105q-86 97 -86 232q0 138 103.5 239.5t244.5 101.5q142 0 244 -101.5t102 -243.5q0 -143 -102.5 -244t-247.5 -101q-71 0 -139.5 31t-118.5 86zM210 134q81 -76 185 -76q114 0 194 80t80 195q0 114 -79.5 194.5t-192.5 80.5 q-112 0 -192 -80t-80 -191q0 -123 85 -203z" />
<glyph unicode="&#xd3;" horiz-adv-x="794" d="M408 720l-43 32l119 130l67 -45zM136 105q-86 97 -86 232q0 138 103.5 239.5t244.5 101.5q142 0 244 -101.5t102 -243.5q0 -143 -102.5 -244t-247.5 -101q-71 0 -139.5 31t-118.5 86zM210 134q81 -76 185 -76q114 0 194 80t80 195q0 114 -79.5 194.5t-192.5 80.5 q-112 0 -192 -80t-80 -191q0 -123 85 -203z" />
<glyph unicode="&#xd4;" horiz-adv-x="794" d="M309 721l-52 41l139 119l141 -119l-53 -41l-88 76zM136 105q-86 97 -86 232q0 138 103.5 239.5t244.5 101.5q142 0 244 -101.5t102 -243.5q0 -143 -102.5 -244t-247.5 -101q-71 0 -139.5 31t-118.5 86zM210 134q81 -76 185 -76q114 0 194 80t80 195q0 114 -79.5 194.5 t-192.5 80.5q-112 0 -192 -80t-80 -191q0 -123 85 -203z" />
<glyph unicode="&#xd5;" horiz-adv-x="794" d="M312 746l-43 34q35 71 89 71q23 0 64 -21q39 -20 55 -20q24 0 45 43l43 -33q-34 -72 -91 -72q-26 0 -65 21q-40 20 -56 20q-12 0 -20 -8.5t-21 -34.5zM136 105q-86 97 -86 232q0 138 103.5 239.5t244.5 101.5q142 0 244 -101.5t102 -243.5q0 -143 -102.5 -244 t-247.5 -101q-71 0 -139.5 31t-118.5 86zM210 134q81 -76 185 -76q114 0 194 80t80 195q0 114 -79.5 194.5t-192.5 80.5q-112 0 -192 -80t-80 -191q0 -123 85 -203z" />
<glyph unicode="&#xd6;" horiz-adv-x="794" d="M495 747q-21 0 -36 15t-15 37q0 20 15 35t36 15t36 -15t15 -36t-15 -36t-36 -15zM305 747q-21 0 -36 15t-15 37q0 20 15 35t36 15t36 -15t15 -36t-15 -36t-36 -15zM136 105q-86 97 -86 232q0 138 103.5 239.5t244.5 101.5q142 0 244 -101.5t102 -243.5 q0 -143 -102.5 -244t-247.5 -101q-71 0 -139.5 31t-118.5 86zM210 134q81 -76 185 -76q114 0 194 80t80 195q0 114 -79.5 194.5t-192.5 80.5q-112 0 -192 -80t-80 -191q0 -123 85 -203z" />
<glyph unicode="&#xd7;" d="M129 143l-42 42l155 155l-155 155l42 42l155 -155l155 155l42 -42l-155 -155l155 -155l-42 -42l-155 155z" />
<glyph unicode="&#xd8;" horiz-adv-x="794" d="M49 37l78 77q-42 58 -59.5 107.5t-17.5 110.5q0 142 102.5 244t245.5 102q112 0 218 -77l77 77l43 -44l-75 -76q46 -61 64.5 -111t18.5 -114q0 -142 -102 -243.5t-245 -101.5q-117 0 -226 82l-77 -77zM180 166l383 385q-73 57 -166 57q-113 0 -192.5 -80.5t-79.5 -195.5 q0 -46 12 -82.5t43 -83.5zM224 123q32 -29 79.5 -47t95.5 -18q111 0 190.5 80.5t79.5 193.5q0 92 -60 175z" />
<glyph unicode="&#xd9;" horiz-adv-x="649" d="M333 720l-143 117l67 45l119 -130zM131 80q-44 56 -44 158v429h75v-409q0 -90 22 -128q20 -32 59 -52t81 -20q43 0 82 20t59 52q22 38 22 128v409h75v-429q0 -102 -44 -158q-33 -43 -84.5 -67.5t-108.5 -24.5t-109.5 24.5t-84.5 67.5z" />
<glyph unicode="&#xda;" horiz-adv-x="649" d="M329 720l-43 32l119 130l67 -45zM131 80q-44 56 -44 158v429h75v-409q0 -90 22 -128q20 -32 59 -52t81 -20q43 0 82 20t59 52q22 38 22 128v409h75v-429q0 -102 -44 -158q-33 -43 -84.5 -67.5t-108.5 -24.5t-109.5 24.5t-84.5 67.5z" />
<glyph unicode="&#xdb;" horiz-adv-x="649" d="M243 721l-52 41l139 119l141 -119l-53 -41l-88 76zM131 80q-44 56 -44 158v429h75v-409q0 -90 22 -128q20 -32 59 -52t81 -20q43 0 82 20t59 52q22 38 22 128v409h75v-429q0 -102 -44 -158q-33 -43 -84.5 -67.5t-108.5 -24.5t-109.5 24.5t-84.5 67.5z" />
<glyph unicode="&#xdc;" horiz-adv-x="649" d="M426 747q-21 0 -36 15t-15 37q0 20 15 35t36 15t36 -15t15 -36t-15 -36t-36 -15zM236 747q-21 0 -36 15t-15 37q0 20 15 35t36 15t36 -15t15 -36t-15 -36t-36 -15zM131 80q-44 56 -44 158v429h75v-409q0 -90 22 -128q20 -32 59 -52t81 -20q43 0 82 20t59 52q22 38 22 128 v409h75v-429q0 -102 -44 -158q-33 -43 -84.5 -67.5t-108.5 -24.5t-109.5 24.5t-84.5 67.5z" />
<glyph unicode="&#xdd;" horiz-adv-x="528" d="M269 720l-43 32l119 130l67 -45zM225 0v287l-218 380h86l170 -298l172 298h87l-222 -380v-287h-75z" />
<glyph unicode="&#xde;" horiz-adv-x="457" d="M87 0v667h75v-94h46q115 0 168 -46q62 -52 62 -141q0 -84 -55 -136q-54 -51 -156 -51h-65v-199h-75zM162 267h60q68 0 105.5 31t37.5 88q0 56 -37 88q-36 30 -111 30h-55v-237z" />
<glyph unicode="&#xdf;" horiz-adv-x="524" d="M68 0v349h-39v66h39v138q0 85 38 131q22 26 58.5 41.5t77.5 15.5q74 0 123 -47.5t49 -119.5q0 -89 -74 -129q65 -25 103.5 -82.5t38.5 -131.5q0 -60 -30 -113t-85 -88q-59 -38 -138 -42v70q64 4 109 36q71 52 71 140q0 44 -20.5 82.5t-55.5 58.5q-37 22 -104 31v64 q47 3 71 21q41 30 41 86q0 43 -28.5 71t-72.5 28q-29 0 -53 -13.5t-35 -36.5q-13 -29 -13 -105v-521h-71z" />
<glyph unicode="&#xe0;" horiz-adv-x="524" d="M260 487l-135 136l74 33l105 -144zM42 209q0 94 56 155t142 61t145 -69v59h71v-415h-71v58q-58 -70 -143 -70q-86 0 -143 62.5t-57 158.5zM115 210q0 -68 38.5 -112.5t97.5 -44.5q61 0 100 43.5t39 111.5q0 67 -38.5 109.5t-99.5 42.5q-58 0 -97.5 -43t-39.5 -107z" />
<glyph unicode="&#xe1;" horiz-adv-x="524" d="M269 487l-44 25l105 144l74 -33zM42 209q0 94 56 155t142 61t145 -69v59h71v-415h-71v58q-58 -70 -143 -70q-86 0 -143 62.5t-57 158.5zM115 210q0 -68 38.5 -112.5t97.5 -44.5q61 0 100 43.5t39 111.5q0 67 -38.5 109.5t-99.5 42.5q-58 0 -97.5 -43t-39.5 -107z" />
<glyph unicode="&#xe2;" horiz-adv-x="524" d="M163 487l-50 39l138 130l139 -130l-52 -39l-87 83zM42 209q0 94 56 155t142 61t145 -69v59h71v-415h-71v58q-58 -70 -143 -70q-86 0 -143 62.5t-57 158.5zM115 210q0 -68 38.5 -112.5t97.5 -44.5q61 0 100 43.5t39 111.5q0 67 -38.5 109.5t-99.5 42.5q-58 0 -97.5 -43 t-39.5 -107z" />
<glyph unicode="&#xe3;" horiz-adv-x="524" d="M179 506l-42 34q12 34 34.5 52.5t51.5 18.5q27 0 62 -21q33 -20 46 -20q14 0 24.5 9.5t22.5 33.5l42 -32q-14 -34 -37 -53.5t-51 -19.5q-22 0 -57 21q-38 21 -54 21q-29 0 -42 -44zM42 209q0 94 56 155t142 61t145 -69v59h71v-415h-71v58q-58 -70 -143 -70 q-86 0 -143 62.5t-57 158.5zM115 210q0 -68 38.5 -112.5t97.5 -44.5q61 0 100 43.5t39 111.5q0 67 -38.5 109.5t-99.5 42.5q-58 0 -97.5 -43t-39.5 -107z" />
<glyph unicode="&#xe4;" horiz-adv-x="524" d="M356 510q-20 0 -35 15t-15 36q0 20 15 34.5t35 14.5q21 0 35.5 -14.5t14.5 -35.5q0 -20 -15 -35t-35 -15zM183 510q-21 0 -35.5 15t-14.5 36q0 20 15 34.5t35 14.5t35 -14.5t15 -35.5q0 -20 -15 -35t-35 -15zM42 209q0 94 56 155t142 61t145 -69v59h71v-415h-71v58 q-58 -70 -143 -70q-86 0 -143 62.5t-57 158.5zM115 210q0 -68 38.5 -112.5t97.5 -44.5q61 0 100 43.5t39 111.5q0 67 -38.5 109.5t-99.5 42.5q-58 0 -97.5 -43t-39.5 -107z" />
<glyph unicode="&#xe5;" horiz-adv-x="524" d="M272 484q-38 0 -64.5 27t-26.5 65q0 36 26.5 62.5t63.5 26.5t64 -26.5t27 -63.5t-26.5 -64t-63.5 -27zM272 533q17 0 29 12.5t12 29.5t-12.5 29t-28.5 12q-17 0 -29.5 -12t-12.5 -29t12.5 -29.5t29.5 -12.5zM42 209q0 94 56 155t142 61t145 -69v59h71v-415h-71v58 q-58 -70 -143 -70q-86 0 -143 62.5t-57 158.5zM115 210q0 -68 38.5 -112.5t97.5 -44.5q61 0 100 43.5t39 111.5q0 67 -38.5 109.5t-99.5 42.5q-58 0 -97.5 -43t-39.5 -107z" />
<glyph unicode="&#xe6;" horiz-adv-x="772" d="M41 122q0 63 53 105q43 34 118 34q38 0 63 -7.5t57 -28.5q-1 70 -29.5 103t-88.5 33q-50 0 -128 -25v66q83 23 133 23q54 0 94.5 -22t58.5 -62q23 39 66.5 61.5t93.5 22.5q58 0 105.5 -29.5t70.5 -79.5q23 -49 22 -123h-325q5 -63 41 -101.5t91 -38.5q77 0 128 87l60 -35 q-37 -61 -81.5 -89t-106.5 -28q-107 0 -162 83q-26 -44 -63 -63.5t-93 -19.5q-80 0 -129 37t-49 97zM411 254h243q-9 50 -41.5 78.5t-79.5 28.5q-98 0 -122 -107zM111 125q0 -32 29 -52t77 -20q49 0 80 21t31 53q0 30 -30.5 49.5t-77.5 19.5q-48 0 -78.5 -20t-30.5 -51z" />
<glyph unicode="&#xe7;" horiz-adv-x="435" d="M41 205q0 92 63.5 155.5t157.5 63.5q69 0 129 -39v-94q-34 37 -63.5 52.5t-67.5 15.5q-62 0 -104 -44t-42 -109t41.5 -109t103.5 -44q39 0 69.5 16t65.5 56v-94q-69 -43 -133 -43q-93 0 -156.5 62.5t-63.5 154.5zM146 -177l84 130l66 -27l-101 -128z" />
<glyph unicode="&#xe8;" horiz-adv-x="481" d="M246 487l-135 136l74 33l105 -144zM41 205q0 97 56 158t145 61t143.5 -60t54.5 -159v-12h-324q3 -64 39.5 -102t92.5 -38q41 0 69.5 19.5t58.5 67.5l60 -34q-67 -118 -191 -118q-90 0 -147 60.5t-57 156.5zM121 253h244q-10 49 -43 78t-79 29q-45 0 -79.5 -30t-42.5 -77z " />
<glyph unicode="&#xe9;" horiz-adv-x="481" d="M258 487l-44 25l105 144l74 -33zM41 205q0 97 56 158t145 61t143.5 -60t54.5 -159v-12h-324q3 -64 39.5 -102t92.5 -38q41 0 69.5 19.5t58.5 67.5l60 -34q-67 -118 -191 -118q-90 0 -147 60.5t-57 156.5zM121 253h244q-10 49 -43 78t-79 29q-45 0 -79.5 -30t-42.5 -77z " />
<glyph unicode="&#xea;" horiz-adv-x="481" d="M159 487l-50 39l138 130l139 -130l-52 -39l-87 83zM41 205q0 97 56 158t145 61t143.5 -60t54.5 -159v-12h-324q3 -64 39.5 -102t92.5 -38q41 0 69.5 19.5t58.5 67.5l60 -34q-67 -118 -191 -118q-90 0 -147 60.5t-57 156.5zM121 253h244q-10 49 -43 78t-79 29 q-45 0 -79.5 -30t-42.5 -77z" />
<glyph unicode="&#xeb;" horiz-adv-x="481" d="M340 510q-20 0 -35 15t-15 36q0 20 15 34.5t35 14.5q21 0 35.5 -14.5t14.5 -35.5q0 -20 -15 -35t-35 -15zM167 510q-21 0 -35.5 15t-14.5 36q0 20 15 34.5t35 14.5t35 -14.5t15 -35.5q0 -20 -15 -35t-35 -15zM41 205q0 97 56 158t145 61t143.5 -60t54.5 -159v-12h-324 q3 -64 39.5 -102t92.5 -38q41 0 69.5 19.5t58.5 67.5l60 -34q-67 -118 -191 -118q-90 0 -147 60.5t-57 156.5zM121 253h244q-10 49 -43 78t-79 29q-45 0 -79.5 -30t-42.5 -77z" />
<glyph unicode="&#xec;" horiz-adv-x="208" d="M102 487l-118 136l74 33l85 -144zM68 0v415h71v-415h-71z" />
<glyph unicode="&#xed;" horiz-adv-x="208" d="M118 487l-41 25l86 144l74 -33zM68 0v415h71v-415h-71z" />
<glyph unicode="&#xee;" horiz-adv-x="208" d="M32 487l-47 39l118 130l119 -130l-48 -39l-71 83zM68 0v415h71v-415h-71z" />
<glyph unicode="&#xef;" horiz-adv-x="208" d="M172 512q-20 0 -34 14.5t-14 34.5q0 19 14.5 33t33.5 14q20 0 34 -14t14 -34t-14 -34t-34 -14zM43 512q-20 0 -34 14.5t-14 34.5q0 19 14.5 33t33.5 14t33.5 -14t14.5 -34t-14.5 -34t-33.5 -14zM69 0v415h71v-415h-71z" />
<glyph unicode="&#xf0;" horiz-adv-x="521" d="M41 206q0 92 64 155.5t158 63.5q44 0 72.5 -13.5t59.5 -49.5q-13 61 -54 128.5t-88 106.5l-107 -56l-45 41l99 51q-51 33 -125 55l29 43q85 -22 157 -66l110 55l42 -40l-103 -53q80 -74 125 -181t45 -225q0 -103 -60.5 -168t-157.5 -65q-94 0 -157.5 62.5t-63.5 155.5z M114 209q0 -68 41 -112t104 -44q65 0 107 43t42 110t-41.5 110.5t-106.5 43.5q-62 0 -104 -43.5t-42 -107.5z" />
<glyph unicode="&#xf1;" horiz-adv-x="469" d="M145 506l-42 34q12 34 34.5 52.5t51.5 18.5q27 0 62 -21q33 -20 46 -20q14 0 24.5 9.5t22.5 33.5l42 -32q-14 -34 -37 -53.5t-51 -19.5q-22 0 -57 21q-38 21 -54 21q-29 0 -42 -44zM68 0v415h71v-50q27 33 54 46.5t66 13.5q38 0 70 -15.5t49 -41.5q23 -37 23 -111v-257 h-71v245q0 59 -14 81q-21 34 -74 34q-54 0 -78.5 -36.5t-24.5 -116.5v-207h-71z" />
<glyph unicode="&#xf2;" horiz-adv-x="521" d="M259 487l-135 136l74 33l105 -144zM41 210q0 88 64.5 151t155.5 63q92 0 155.5 -63t63.5 -155t-63.5 -155t-157.5 -63q-92 0 -155 64t-63 158zM114 208q0 -68 40.5 -111.5t104.5 -43.5q65 0 106.5 43t41.5 110t-41.5 110t-105.5 43q-62 0 -104 -43.5t-42 -107.5z" />
<glyph unicode="&#xf3;" horiz-adv-x="521" d="M271 487l-44 25l105 144l74 -33zM41 210q0 88 64.5 151t155.5 63q92 0 155.5 -63t63.5 -155t-63.5 -155t-157.5 -63q-92 0 -155 64t-63 158zM114 208q0 -68 40.5 -111.5t104.5 -43.5q65 0 106.5 43t41.5 110t-41.5 110t-105.5 43q-62 0 -104 -43.5t-42 -107.5z" />
<glyph unicode="&#xf4;" horiz-adv-x="521" d="M172 487l-50 39l138 130l139 -130l-52 -39l-87 83zM41 210q0 88 64.5 151t155.5 63q92 0 155.5 -63t63.5 -155t-63.5 -155t-157.5 -63q-92 0 -155 64t-63 158zM114 208q0 -68 40.5 -111.5t104.5 -43.5q65 0 106.5 43t41.5 110t-41.5 110t-105.5 43q-62 0 -104 -43.5 t-42 -107.5z" />
<glyph unicode="&#xf5;" horiz-adv-x="521" d="M179 506l-42 34q12 34 34.5 52.5t51.5 18.5q27 0 62 -21q33 -20 46 -20q14 0 24.5 9.5t22.5 33.5l42 -32q-14 -34 -37 -53.5t-51 -19.5q-22 0 -57 21q-38 21 -54 21q-29 0 -42 -44zM41 210q0 88 64.5 151t155.5 63q92 0 155.5 -63t63.5 -155t-63.5 -155t-157.5 -63 q-92 0 -155 64t-63 158zM114 208q0 -68 40.5 -111.5t104.5 -43.5q65 0 106.5 43t41.5 110t-41.5 110t-105.5 43q-62 0 -104 -43.5t-42 -107.5z" />
<glyph unicode="&#xf6;" horiz-adv-x="521" d="M350 510q-20 0 -35 15t-15 36q0 20 15 34.5t35 14.5q21 0 35.5 -14.5t14.5 -35.5q0 -20 -15 -35t-35 -15zM177 510q-21 0 -35.5 15t-14.5 36q0 20 15 34.5t35 14.5t35 -14.5t15 -35.5q0 -20 -15 -35t-35 -15zM41 210q0 88 64.5 151t155.5 63q92 0 155.5 -63t63.5 -155 t-63.5 -155t-157.5 -63q-92 0 -155 64t-63 158zM114 208q0 -68 40.5 -111.5t104.5 -43.5q65 0 106.5 43t41.5 110t-41.5 110t-105.5 43q-62 0 -104 -43.5t-42 -107.5z" />
<glyph unicode="&#xf7;" d="M284 424q-20 0 -33.5 14t-13.5 34q0 19 14 32.5t33 13.5q20 0 33.5 -14t13.5 -33t-13.5 -33t-33.5 -14zM48 310v61h471v-61h-471zM237 210q0 19 14 32.5t33 13.5q20 0 33.5 -14t13.5 -33t-13.5 -33t-33.5 -14t-33.5 14t-13.5 34z" />
<glyph unicode="&#xf8;" horiz-adv-x="521" d="M26 15l59 59q-44 59 -44 133q0 91 64 154t156 63q74 0 132 -44l59 60l40 -40l-59 -59q20 -20 33.5 -58t13.5 -78q0 -90 -63.5 -153.5t-154.5 -63.5q-71 0 -136 45l-60 -59zM136 123l207 210q-33 26 -83 26q-64 0 -105 -43.5t-41 -111.5q0 -47 22 -81zM174 80 q33 -27 86 -27q64 0 105.5 43.5t41.5 109.5q0 51 -24 88z" />
<glyph unicode="&#xf9;" horiz-adv-x="465" d="M231 487l-135 136l74 33l105 -144zM106 40q-38 41 -38 125v250h71v-242q0 -52 13 -77q23 -43 80 -43q59 0 81 43q13 25 13 77v242h71v-250q0 -84 -38 -125q-47 -52 -127 -52q-79 0 -126 52z" />
<glyph unicode="&#xfa;" horiz-adv-x="465" d="M244 487l-44 25l105 144l74 -33zM106 40q-38 41 -38 125v250h71v-242q0 -52 13 -77q23 -43 80 -43q59 0 81 43q13 25 13 77v242h71v-250q0 -84 -38 -125q-47 -52 -127 -52q-79 0 -126 52z" />
<glyph unicode="&#xfb;" horiz-adv-x="465" d="M151 487l-50 39l138 130l139 -130l-52 -39l-87 83zM106 40q-38 41 -38 125v250h71v-242q0 -52 13 -77q23 -43 80 -43q59 0 81 43q13 25 13 77v242h71v-250q0 -84 -38 -125q-47 -52 -127 -52q-79 0 -126 52z" />
<glyph unicode="&#xfc;" horiz-adv-x="465" d="M326 510q-20 0 -35 15t-15 36q0 20 15 34.5t35 14.5q21 0 35.5 -14.5t14.5 -35.5q0 -20 -15 -35t-35 -15zM153 510q-21 0 -35.5 15t-14.5 36q0 20 15 34.5t35 14.5t35 -14.5t15 -35.5q0 -20 -15 -35t-35 -15zM106 40q-38 41 -38 125v250h71v-242q0 -52 13 -77 q23 -43 80 -43q59 0 81 43q13 25 13 77v242h71v-250q0 -84 -38 -125q-47 -52 -127 -52q-79 0 -126 52z" />
<glyph unicode="&#xfd;" horiz-adv-x="460" d="M244 487l-44 25l105 144l74 -33zM199 39l-191 376h82l147 -297l134 297h81l-307 -649h-80z" />
<glyph unicode="&#xfe;" horiz-adv-x="524" d="M139 58v-292h-71v963h71v-373q58 68 143 68q86 0 143 -62.5t57 -157.5q0 -93 -56.5 -154.5t-141.5 -61.5t-145 70zM135 205q0 -67 38.5 -109.5t99.5 -42.5q58 0 97 43t39 106q0 68 -38.5 112.5t-97.5 44.5q-61 0 -99.5 -43t-38.5 -111z" />
<glyph unicode="&#xff;" horiz-adv-x="460" d="M326 510q-20 0 -35 15t-15 36q0 20 15 34.5t35 14.5q21 0 35.5 -14.5t14.5 -35.5q0 -20 -15 -35t-35 -15zM153 510q-21 0 -35.5 15t-14.5 36q0 20 15 34.5t35 14.5t35 -14.5t15 -35.5q0 -20 -15 -35t-35 -15zM199 39l-191 376h82l147 -297l134 297h81l-307 -649h-80z" />
<glyph unicode="&#x152;" horiz-adv-x="1056" d="M50 332q0 143 101.5 244.5t244.5 101.5q164 0 269 -142v131h341v-69h-266v-199h259v-69h-259v-261h266v-69h-341v128q-101 -140 -266 -140q-143 0 -246 101.5t-103 242.5zM125 337q0 -115 78.5 -197t188.5 -82q113 0 193 80.5t80 193.5t-79.5 194.5t-190.5 81.5 q-109 0 -189.5 -81t-80.5 -190z" />
<glyph unicode="&#x153;" horiz-adv-x="851" d="M41 205q0 91 64.5 155t156.5 64q57 0 105 -26t74 -72q23 46 68 72t100 26q91 0 145.5 -59t54.5 -157v-14h-327q3 -62 40.5 -101.5t95.5 -39.5q78 0 125 88l60 -35q-67 -118 -190 -118q-56 0 -103 27t-69 72q-29 -47 -77.5 -73t-105.5 -26q-90 0 -153.5 63.5t-63.5 153.5z M114 208q0 -68 40.5 -111.5t103.5 -43.5q65 0 106.5 42.5t41.5 109.5q0 68 -41 111.5t-106 43.5q-62 0 -103.5 -43.5t-41.5 -108.5zM488 254h246q-11 50 -42.5 77.5t-80.5 27.5q-98 0 -123 -105z" />
<glyph unicode="&#x178;" horiz-adv-x="528" d="M363 747q-21 0 -36 15t-15 37q0 20 15 35t36 15t36 -15t15 -36t-15 -36t-36 -15zM173 747q-21 0 -36 15t-15 37q0 20 15 35t36 15t36 -15t15 -36t-15 -36t-36 -15zM225 0v287l-218 380h86l170 -298l172 298h87l-222 -380v-287h-75z" />
<glyph unicode="&#x2c6;" horiz-adv-x="500" d="M162 487l-50 39l138 130l139 -130l-52 -39l-87 83z" />
<glyph unicode="&#x2dc;" horiz-adv-x="500" d="M151 506l-42 34q12 34 34.5 52.5t51.5 18.5q27 0 62 -21q33 -20 46 -20q14 0 24.5 9.5t22.5 33.5l42 -32q-14 -34 -37 -53.5t-51 -19.5q-22 0 -57 21q-38 21 -54 21q-29 0 -42 -44z" />
<glyph unicode="&#x2000;" horiz-adv-x="448" />
<glyph unicode="&#x2001;" horiz-adv-x="896" />
<glyph unicode="&#x2002;" horiz-adv-x="448" />
<glyph unicode="&#x2003;" horiz-adv-x="896" />
<glyph unicode="&#x2004;" horiz-adv-x="298" />
<glyph unicode="&#x2005;" horiz-adv-x="224" />
<glyph unicode="&#x2006;" horiz-adv-x="149" />
<glyph unicode="&#x2007;" horiz-adv-x="149" />
<glyph unicode="&#x2008;" horiz-adv-x="112" />
<glyph unicode="&#x2009;" horiz-adv-x="179" />
<glyph unicode="&#x200a;" horiz-adv-x="49" />
<glyph unicode="&#x2010;" horiz-adv-x="181" d="M0 181v64h181v-64h-181z" />
<glyph unicode="&#x2011;" horiz-adv-x="181" d="M0 181v64h181v-64h-181z" />
<glyph unicode="&#x2013;" d="M117 181v64h333v-64h-333z" />
<glyph unicode="&#x2014;" horiz-adv-x="544" d="M0 181v64h544v-64h-544z" />
<glyph unicode="&#x2018;" horiz-adv-x="261" d="M122 451l-65 24l100 225l48 -19z" />
<glyph unicode="&#x2019;" horiz-adv-x="252" d="M94 451l-48 19l83 230l65 -24z" />
<glyph unicode="&#x201a;" horiz-adv-x="252" d="M46 -130l83 230l65 -24l-100 -225z" />
<glyph unicode="&#x201c;" horiz-adv-x="408" d="M203 475l101 225l48 -19l-83 -230zM122 451l-65 24l100 225l48 -19z" />
<glyph unicode="&#x201d;" horiz-adv-x="408" d="M203 470l83 230l66 -24l-101 -225zM105 451l-48 19l83 230l65 -24z" />
<glyph unicode="&#x201e;" horiz-adv-x="408" d="M203 -133l83 231l66 -24l-101 -226zM57 -133l83 231l65 -24l-100 -226z" />
<glyph unicode="&#x2022;" horiz-adv-x="667" d="M335 200q-57 0 -98 41t-41 97q0 58 41 98.5t100 40.5q55 0 95.5 -41t40.5 -97q0 -58 -40.5 -98.5t-97.5 -40.5z" />
<glyph unicode="&#x2026;" horiz-adv-x="746" d="M572 40q0 19 14.5 33.5t34.5 14.5t34.5 -14.5t14.5 -34.5t-14.5 -34.5t-34.5 -14.5t-34.5 14.5t-14.5 35.5zM324 40q0 19 14.5 33.5t34.5 14.5t34.5 -14.5t14.5 -34.5t-14.5 -34.5t-34.5 -14.5t-34.5 14.5t-14.5 35.5zM75 40q0 19 14.5 33.5t34.5 14.5t34.5 -14.5 t14.5 -34.5t-14.5 -34.5t-34.5 -14.5t-34.5 14.5t-14.5 35.5z" />
<glyph unicode="&#x202f;" horiz-adv-x="179" />
<glyph unicode="&#x2039;" horiz-adv-x="282" d="M186 29l-149 184l149 187l47 -36l-119 -151l119 -147z" />
<glyph unicode="&#x203a;" horiz-adv-x="282" d="M50 66l119 147l-119 151l47 36l149 -187l-150 -184z" />
<glyph unicode="&#x205f;" horiz-adv-x="224" />
<glyph unicode="&#x20ac;" horiz-adv-x="760" d="M45 259l24 58h51q-1 11 -1 16q0 11 1 20h-75l24 58h59q28 117 123.5 192t215.5 75q145 0 248 -106l-32 -73q-83 109 -216 109q-91 0 -163.5 -54.5t-97.5 -142.5h439l-25 -57l-425 -1q-1 -11 -1 -21q0 -5 1 -15h410l-24 -58h-377q23 -87 97.5 -144t164.5 -57 q63 0 120.5 29t97.5 81v-103q-97 -77 -219 -77q-121 0 -218 78t-120 193h-82z" />
<glyph unicode="&#x2122;" horiz-adv-x="721" d="M270 287l65 405l143 -316l147 316l61 -405h-47l-34 258l-127 -277l-125 277l-37 -258h-46zM94 287v335h-90v45h230v-45h-92v-335h-48z" />
</font>
</defs>
</svg>
